<?xml version="1.0" encoding="utf-8"?>
<!-- Generator: Adobe Illustrator 16.0.3, SVG Export Plug-In . SVG Version: 6.00 Build 0)  -->
<!DOCTYPE svg PUBLIC "-//W3C//DTD SVG 1.1//EN" "http://www.w3.org/Graphics/SVG/1.1/DTD/svg11.dtd">
<svg version="1.1" id="Layer_1" xmlns="http://www.w3.org/2000/svg" xmlns:xlink="http://www.w3.org/1999/xlink" x="0px" y="0px"
	 width="736.417px" height="147.4px" viewBox="-218.288 -74.625 736.417 147.4"
	 enable-background="new -218.288 -74.625 736.417 147.4" xml:space="preserve">
<g>
	<path fill="#FFFFFF" d="M-177.075-69.932c11.523,0,19.855,3.649,27.612,10.619c1.024,0.903,1.024,2.278,0.117,3.19l-6.958,7.194
		c-0.805,0.907-1.938,0.907-2.862,0c-4.791-4.223-11.181-6.737-17.577-6.737c-14.605,0-25.451,12.216-25.451,26.604
		c0,14.258,10.959,26.357,25.562,26.357c6.848,0,12.669-2.627,17.46-6.5c0.923-0.804,2.167-0.687,2.86,0l7.072,7.293
		c0.917,0.804,0.695,2.289-0.106,3.084c-7.763,7.544-17.577,11.074-27.737,11.074c-22.82,0-41.204-18.15-41.204-40.978
		C-218.281-51.557-199.896-69.932-177.075-69.932"/>
	<path fill="#FFFFFF" d="M-97.198-2.588c14.376,0,26.246-11.762,26.246-26.143c0-14.378-11.87-26.351-26.246-26.351
		c-14.375,0-26.131,11.972-26.131,26.351C-123.329-14.35-111.573-2.588-97.198-2.588 M-97.198-69.932
		c22.822,0,41.081,18.375,41.081,41.201c0,22.819-18.258,40.978-41.081,40.978c-22.824,0-40.974-18.159-40.974-40.978
		C-138.163-51.557-120.021-69.932-97.198-69.932"/>
	<path fill="#FFFFFF" d="M-38.888-67.879c0-1.136,1.03-2.053,2.17-2.053h2.854l47.474,50.443h0.119v-47.135
		c0-1.146,0.904-2.17,2.161-2.17h10.5c1.139,0,2.174,1.023,2.174,2.17v76.81c0,1.134-1.027,2.061-2.174,2.061h-2.743l-47.7-52.389
		h-0.124v49.07c0,1.15-0.909,2.172-2.153,2.172h-10.396c-1.14,0-2.168-1.022-2.168-2.172v-76.807H-38.888z"/>
	<path fill="#FFFFFF" d="M62.333-55.098H44.866c-1.249,0-2.162-1.024-2.162-2.173v-9.353c0-1.138,0.913-2.17,2.162-2.17h49.878
		c1.245,0,2.17,1.023,2.17,2.17v9.353c0,1.148-0.925,2.173-2.17,2.173H77.279V8.928c0,1.138-1.021,2.168-2.167,2.168h-10.61
		c-1.146,0-2.169-1.03-2.169-2.168V-55.098z"/>
	<path fill="#FFFFFF" d="M111.059-66.624c0-1.132,1.021-2.17,2.168-2.17h10.614c1.144,0,2.173,1.032,2.173,2.17V8.928
		c0,1.138-1.021,2.172-2.173,2.172h-10.614c-1.139,0-2.168-1.034-2.168-2.172V-66.624z"/>
	<path fill="#FFFFFF" d="M149.057-67.879c0-1.136,1.029-2.053,2.166-2.053h2.854l47.477,50.443h0.118v-47.135
		c0-1.146,0.908-2.17,2.163-2.17h10.505c1.13,0,2.165,1.023,2.165,2.17v76.81c0,1.134-1.035,2.061-2.165,2.061h-2.747
		l-47.688-52.389h-0.128v49.07c0,1.15-0.906,2.172-2.155,2.172h-10.394c-1.143,0-2.172-1.022-2.172-2.172V-67.879L149.057-67.879z"
		/>
	<path fill="#FFFFFF" d="M238.407-66.624c0-1.132,1.03-2.17,2.174-2.17h10.831c1.268,0,2.168,1.032,2.168,2.17v46.681
		c0,9.696,6.624,17.341,16.555,17.341c9.918,0,16.655-7.645,16.655-17.229v-46.792c0-1.132,0.917-2.17,2.155-2.17h10.856
		c1.135,0,2.155,1.032,2.155,2.17v47.477c0,17.344-13.801,31.394-31.837,31.394c-17.923,0-31.728-14.05-31.728-31.394v-47.477
		H238.407z"/>
	<path fill="#FFFFFF" d="M322.747-66.624c0-1.132,1.018-2.17,2.167-2.17h10.837c1.255,0,2.163,1.032,2.163,2.17v46.681
		c0,9.696,6.62,17.341,16.543,17.341c9.931,0,16.668-7.645,16.668-17.229v-46.792c0-1.132,0.917-2.17,2.163-2.17h10.841
		c1.129,0,2.162,1.032,2.162,2.17v47.477c0,17.344-13.807,31.394-31.834,31.394c-17.927,0-31.722-14.05-31.722-31.394v-47.477
		H322.747z"/>
	<path fill="#FFFFFF" d="M416.54-68.223c0.115-0.91,0.812-1.709,2.066-1.709h1.816c0.909,0,1.595,0.458,1.937,1.132l25.112,53.873
		h0.331L472.915-68.8c0.352-0.682,0.914-1.132,1.938-1.132h1.828c1.254,0,1.946,0.799,2.063,1.709l13.461,76.699
		c0.343,1.589-0.563,2.624-2.057,2.624h-10.39c-1.03,0-1.94-0.914-2.166-1.714l-6.729-43.261h-0.341l-19.971,44.867
		c-0.22,0.679-0.901,1.237-1.94,1.237h-2.054c-1.037,0-1.596-0.559-1.938-1.237l-20.202-44.867h-0.349l-6.611,43.261
		c-0.124,0.801-1.029,1.714-2.059,1.714h-10.266c-1.48,0-2.404-1.034-2.178-2.624L416.54-68.223z"/>
	<path fill="#FFFFFF" d="M218.428,59.805L212.01,45.48h-0.271l-6.366,14.324H218.428z M194.756,70.89L210.8,35.714
		c0.159-0.317,0.621-0.569,0.891-0.569h0.519c0.255,0,0.726,0.252,0.882,0.569l15.94,35.176c0.313,0.677-0.104,1.354-0.887,1.354
		h-3.293c-0.628,0-0.992-0.313-1.2-0.783l-3.239-7.164h-17.087c-1.05,2.41-2.135,4.753-3.185,7.164
		c-0.164,0.368-0.578,0.783-1.21,0.783h-3.28C194.862,72.243,194.438,71.566,194.756,70.89"/>
	<path fill="#FFFFFF" d="M238.438,36.072c0-0.514,0.47-0.938,1-0.938h1.304l22.688,26.244h0.052v-24.72
		c0-0.512,0.417-0.992,0.991-0.992h3.347c0.522,0,0.997,0.48,0.997,0.992v35.17c0,0.526-0.475,0.947-0.997,0.947h-1.363
		l-22.68-26.973h-0.057v25.45c0,0.522-0.424,0.99-0.996,0.99h-3.286c-0.53,0-1-0.468-1-0.99V36.072z"/>
	<path fill="#FFFFFF" d="M301.877,59.805l-6.434-14.324h-0.258l-6.374,14.324H301.877z M278.203,70.89l16.04-35.176
		c0.154-0.317,0.634-0.569,0.89-0.569h0.52c0.259,0,0.727,0.252,0.88,0.569l15.955,35.176c0.305,0.677-0.116,1.354-0.892,1.354
		h-3.303c-0.621,0-0.985-0.313-1.199-0.783l-3.235-7.164h-17.094c-1.042,2.41-2.132,4.753-3.185,7.164
		c-0.155,0.368-0.568,0.783-1.201,0.783h-3.293C278.307,72.243,277.885,71.566,278.203,70.89"/>
	<path fill="#FFFFFF" d="M321.868,36.65c0-0.52,0.425-0.996,0.997-0.996h3.459c0.514,0,0.984,0.477,0.984,0.996v30.73h14.166
		c0.572,0,0.997,0.472,0.997,0.996v2.869c0,0.521-0.425,0.997-0.997,0.997h-18.609c-0.572,0-0.997-0.477-0.997-0.997V36.65z"/>
	<path fill="#FFFFFF" d="M356.624,54.625l-12.219-17.448c-0.432-0.683,0-1.522,0.831-1.522h3.863c0.427,0,0.676,0.264,0.833,0.477
		l9.46,13.335l9.469-13.335c0.158-0.207,0.475-0.477,0.824-0.477h3.93c0.82,0,1.255,0.84,0.82,1.522l-12.374,17.39v16.672
		c0,0.526-0.49,0.998-1.004,0.998h-3.437c-0.589,0-0.997-0.472-0.997-0.998V54.625L356.624,54.625z"/>
	<path fill="#FFFFFF" d="M390.379,40.575h-8.523c-0.576,0-1-0.479-1-0.993v-2.924c0-0.527,0.424-1.004,1-1.004h22.468
		c0.571,0,0.987,0.477,0.987,1.004v2.924c0,0.514-0.416,0.993-0.987,0.993h-8.526v30.671c0,0.521-0.468,0.997-0.983,0.997h-3.451
		c-0.514,0-0.994-0.477-0.994-0.997V40.575H390.379z"/>
	<path fill="#FFFFFF" d="M415.143,36.65c0-0.52,0.482-0.996,1-0.996h3.442c0.521,0,0.988,0.477,0.988,0.996v34.596
		c0,0.521-0.467,0.997-0.988,0.997h-3.442c-0.518,0-1-0.477-1-0.997V36.65z"/>
	<path fill="#FFFFFF" d="M451.095,35.134c5.277,0,9.091,1.785,12.65,4.869c0.468,0.409,0.468,1.046,0.046,1.464l-2.294,2.346
		c-0.374,0.473-0.846,0.473-1.312,0c-2.452-2.145-5.805-3.504-9.045-3.504c-7.466,0-13.116,6.271-13.116,13.59
		c0,7.317,5.704,13.551,13.176,13.551c3.811,0,6.482-1.532,8.985-3.455c0.466-0.375,0.938-0.314,1.26-0.062l2.406,2.367
		c0.423,0.354,0.317,1.04-0.061,1.407c-3.549,3.447-8.05,5.068-12.696,5.068c-10.463,0-18.878-8.31-18.878-18.763
		C432.217,43.561,440.648,35.134,451.095,35.134"/>
	<path fill="#FFFFFF" d="M473.084,66.96c0.486-0.67,0.891-1.454,1.36-2.138c0.468-0.681,1.203-0.89,1.774-0.418
		c0.319,0.255,4.353,3.601,8.367,3.601c3.605,0,5.91-2.176,5.91-4.848c0-3.142-2.713-5.132-7.892-7.278
		c-5.336-2.238-9.521-5.007-9.521-11.077c0-4.072,3.135-9.668,11.442-9.668c5.24,0,9.156,2.73,9.673,3.084
		c0.42,0.258,0.842,0.998,0.317,1.771c-0.425,0.627-0.877,1.361-1.302,1.981c-0.433,0.681-1.105,1-1.83,0.53
		c-0.38-0.212-4.025-2.618-7.058-2.618c-4.387,0-5.9,2.769-5.9,4.693c0,2.989,2.302,4.814,6.624,6.6
		c6.062,2.451,11.236,5.326,11.236,11.703c0,5.428-4.857,9.884-11.655,9.884c-6.368,0-10.397-3.351-11.233-4.126
		C472.929,68.218,472.569,67.853,473.084,66.96"/>
	<path fill="#FFFFFF" d="M507.518-69.954c5.842,0,10.611,4.772,10.611,10.605c0,5.84-4.77,10.581-10.611,10.581
		c-5.826,0-10.563-4.74-10.563-10.581C496.954-65.182,501.691-69.954,507.518-69.954 M507.518-50.805
		c4.75,0,8.562-3.828,8.562-8.548c0-4.742-3.812-8.549-8.562-8.549c-4.701,0-8.536,3.807-8.536,8.549
		C498.99-54.633,502.816-50.805,507.518-50.805 M503.732-64.215c0-0.292,0.231-0.556,0.563-0.556h4.356
		c1.818,0,3.615,1.243,3.615,3.478c0,2.092-1.352,2.925-2.239,3.239c0.541,1.093,1.063,2.217,1.57,3.272
		c0.202,0.38-0.094,0.799-0.507,0.799h-1.318c-0.229,0-0.446-0.211-0.532-0.412l-1.464-3.482h-1.83v3.335
		c0,0.294-0.234,0.559-0.564,0.559h-1.087c-0.332,0-0.563-0.272-0.563-0.559V-64.215z M508.503-59.822
		c0.876,0,1.467-0.642,1.467-1.437c0-0.856-0.591-1.448-1.467-1.448h-2.617v2.885H508.503z"/>
</g>
</svg>
